<?xml version="1.0" encoding="UTF-8" standalone="no"?>
<svg
   width="384.25598"
   height="61.657875"
   viewBox="0 0 384.25598 61.657875"
   version="1.1"
   id="svg144"
   sodipodi:docname="recombee-logo.svg"
   inkscape:version="1.2.2 (b0a84865, 2022-12-01)"
   xmlns:inkscape="http://www.inkscape.org/namespaces/inkscape"
   xmlns:sodipodi="http://sodipodi.sourceforge.net/DTD/sodipodi-0.dtd"
   xmlns="http://www.w3.org/2000/svg"
   xmlns:svg="http://www.w3.org/2000/svg"
   xmlns:rdf="http://www.w3.org/1999/02/22-rdf-syntax-ns#"
   xmlns:cc="http://creativecommons.org/ns#"
   xmlns:dc="http://purl.org/dc/elements/1.1/">
  <defs
     id="defs148" />
  <sodipodi:namedview
     id="namedview146"
     pagecolor="#ffffff"
     bordercolor="#000000"
     borderopacity="0.25"
     inkscape:showpageshadow="2"
     inkscape:pageopacity="0.0"
     inkscape:pagecheckerboard="0"
     inkscape:deskcolor="#d1d1d1"
     showgrid="false"
     inkscape:zoom="6.2642487"
     inkscape:cx="286.94582"
     inkscape:cy="15.724152"
     inkscape:window-width="1800"
     inkscape:window-height="1097"
     inkscape:window-x="0"
     inkscape:window-y="44"
     inkscape:window-maximized="1"
     inkscape:current-layer="svg144" />
  <title
     id="title132">Logo</title>
  <g
     transform="matrix(2,0,0,2,-7.6760186,-8.5754847)"
     fill="none"
     fill-rule="evenodd"
     id="g142">
    <rect
       fill="#0fa5a5"
       transform="rotate(45,31.669,19.703)"
       x="13.704"
       y="10.474"
       width="35.929001"
       height="18.457001"
       rx="9.2279997"
       id="rect134" />
    <rect
       fill="#ffc021"
       transform="matrix(-0.70710678,0.70710678,0.70710678,0.70710678,18.933491,-7.8425088)"
       x="1.2869999"
       y="10.474"
       width="35.929001"
       height="18.457001"
       rx="9.2279997"
       id="rect136" />
    <path
       d="m 25.46,4.299 a 9.228,9.228 0 0 0 -6.494,15.753 l 6.494,6.493 6.494,-6.494 A 9.228,9.228 0 0 0 25.46,4.3 Z"
       fill="#3bc4a1"
       id="path138" />
    <path
       d="m 69.826,21.649 v 7.546 h -3.91 V 10.2 h 5.879 c 4.707,0 7.247,2.079 7.247,5.98 0,2.99 -1.57,4.984 -4.508,5.724 l 5.25,7.29 h -4.737 l -5.221,-7.546 z m 0,-2.279 h 1.769 c 2.225,0 3.48,-1.082 3.48,-2.99 0,-1.822 -1.198,-2.961 -3.138,-2.961 h -2.111 z m 25.336,4.101 H 84.834 c 0.314,1.823 1.655,2.962 3.452,2.962 1.341,0 2.482,-0.655 3.053,-1.709 l 3.338,0.911 c -1.312,2.563 -3.623,4.016 -6.42,4.016 -4.194,0 -7.19,-2.962 -7.19,-7.063 0,-4.129 2.882,-7.033 6.962,-7.033 4.223,0 7.162,2.961 7.162,7.204 z M 84.834,21.392 h 6.62 c -0.315,-1.737 -1.57,-2.79 -3.368,-2.79 -1.74,0 -2.91,0.996 -3.252,2.79 z m 21.97,3.93 c -0.942,0.826 -1.627,1.11 -2.568,1.11 -2.112,0 -3.624,-1.622 -3.624,-3.872 0,-2.164 1.484,-3.788 3.48,-3.788 1.057,0 1.913,0.37 2.711,1.168 l 2.426,-2.193 c -1.684,-1.509 -3.31,-2.192 -5.279,-2.192 -4.108,0 -7.019,2.961 -7.019,7.119 0,4.015 2.968,6.977 6.99,6.977 1.998,0 3.567,-0.598 5.08,-1.965 l -2.198,-2.364 z m 10.3,-9.767 c 4.165,0 7.161,3.018 7.161,7.176 0,3.873 -3.167,6.92 -7.219,6.92 -4.165,0 -7.161,-2.934 -7.161,-7.034 0,-4.186 2.939,-7.062 7.219,-7.062 z m 0,3.246 c -2.14,0 -3.567,1.51 -3.567,3.816 0,2.278 1.427,3.816 3.538,3.816 2.083,0 3.538,-1.567 3.538,-3.76 0,-2.391 -1.341,-3.872 -3.51,-3.872 z m 9.843,-2.79 v 13.184 h 3.624 v -7.831 c 0,-1.823 0.713,-2.762 2.083,-2.762 1.312,0 1.997,0.94 1.997,2.762 v 7.83 h 3.623 V 21.25 c 0,-1.68 0.77,-2.648 2.112,-2.648 1.37,0 2.026,0.854 2.026,2.648 v 7.945 h 3.623 v -8.628 c 0,-1.994 -0.257,-2.905 -1.056,-3.788 -0.741,-0.797 -1.854,-1.224 -3.195,-1.224 -1.883,0 -3.11,0.683 -3.995,2.192 -0.627,-1.423 -1.883,-2.192 -3.595,-2.192 -1.683,0 -2.796,0.655 -3.623,2.107 V 16.01 h -3.624 z m 26.221,11.475 v 1.709 h -3.623 V 10.2 h 3.623 v 7.404 c 1.256,-1.452 2.482,-2.05 4.28,-2.05 3.88,0 6.648,2.961 6.648,7.119 0,4.129 -2.625,6.977 -6.477,6.977 -1.997,0 -3.281,-0.627 -4.45,-2.165 z m 3.567,-8.884 c -2.026,0 -3.624,1.822 -3.624,4.1 0,2.364 1.455,4.015 3.538,4.015 2.111,0 3.595,-1.651 3.595,-4.015 0,-2.335 -1.512,-4.1 -3.51,-4.1 z m 23.339,4.87 h -10.329 c 0.314,1.822 1.655,2.96 3.453,2.96 1.34,0 2.482,-0.654 3.053,-1.708 l 3.338,0.911 c -1.313,2.563 -3.624,4.016 -6.42,4.016 -4.194,0 -7.19,-2.962 -7.19,-7.063 0,-4.129 2.882,-7.033 6.962,-7.033 4.223,0 7.161,2.961 7.161,7.204 l -0.028,0.712 z m -10.329,-2.08 h 6.62 c -0.314,-1.737 -1.57,-2.79 -3.367,-2.79 -1.74,0 -2.91,0.996 -3.253,2.79 z m 26.193,2.08 h -10.329 c 0.314,1.822 1.655,2.96 3.453,2.96 1.34,0 2.482,-0.654 3.053,-1.708 l 3.338,0.911 c -1.313,2.563 -3.624,4.016 -6.42,4.016 -4.194,0 -7.19,-2.962 -7.19,-7.063 0,-4.129 2.882,-7.033 6.962,-7.033 4.223,0 7.161,2.961 7.161,7.204 l -0.028,0.712 z m -10.329,-2.08 h 6.62 c -0.314,-1.737 -1.57,-2.79 -3.367,-2.79 -1.74,0 -2.91,0.996 -3.253,2.79 z"
       fill="#364040"
       id="path140" />
  </g>
  <metadata
     id="metadata1288">
    <rdf:RDF>
      <cc:Work
         rdf:about="">
        <dc:title>Logo</dc:title>
      </cc:Work>
    </rdf:RDF>
  </metadata>
</svg>
