<?xml version="1.0" encoding="UTF-8" standalone="no"?>
<!-- Created with Inkscape (http://www.inkscape.org/) -->

<svg
   version="1.1"
   id="svg686"
   width="175.448"
   height="187.33067"
   viewBox="0 0 175.448 187.33067"
   sodipodi:docname="tatra_banka.svg"
   inkscape:version="1.2.2 (b0a84865, 2022-12-01)"
   xmlns:inkscape="http://www.inkscape.org/namespaces/inkscape"
   xmlns:sodipodi="http://sodipodi.sourceforge.net/DTD/sodipodi-0.dtd"
   xmlns="http://www.w3.org/2000/svg"
   xmlns:svg="http://www.w3.org/2000/svg">
  <defs
     id="defs690">
    <clipPath
       clipPathUnits="userSpaceOnUse"
       id="clipPath706">
      <path
         d="M 0,140.498 H 131.586 V 0 H 0 Z"
         id="path704" />
    </clipPath>
  </defs>
  <sodipodi:namedview
     id="namedview688"
     pagecolor="#ffffff"
     bordercolor="#000000"
     borderopacity="0.25"
     inkscape:showpageshadow="2"
     inkscape:pageopacity="0.0"
     inkscape:pagecheckerboard="0"
     inkscape:deskcolor="#d1d1d1"
     showgrid="false"
     inkscape:zoom="1.2598043"
     inkscape:cx="88.10892"
     inkscape:cy="93.665338"
     inkscape:window-width="1419"
     inkscape:window-height="456"
     inkscape:window-x="0"
     inkscape:window-y="44"
     inkscape:window-maximized="0"
     inkscape:current-layer="g694">
    <inkscape:page
       x="0"
       y="0"
       id="page692"
       width="175.448"
       height="187.33067" />
  </sodipodi:namedview>
  <g
     id="g694"
     inkscape:groupmode="layer"
     inkscape:label="Page 1"
     transform="matrix(1.3333333,0,0,-1.3333333,0,187.33067)">
    <g
       id="g696"
       transform="translate(20.7385,2.4005)">
      <path
         d="M 0,0 H -0.968 L -1.278,4.38 -3.936,-0.484 -5.41,4.38 -6.78,0 h -1.041 l 2.38,7.358 1.731,-5.616 3.143,5.771 z"
         style="fill:#231f20;fill-opacity:1;fill-rule:nonzero;stroke:none"
         id="path698" />
    </g>
    <g
       id="g700">
      <g
         id="g702"
         clip-path="url(#clipPath706)">
        <g
           id="g708"
           transform="translate(24.5606,4.1418)">
          <path
             d="m 0,0 c 0.03,-0.649 0.473,-1.05 1.154,-1.05 0.453,0 0.813,0.174 1.051,0.515 L 2.937,-0.948 C 2.442,-1.618 1.948,-1.876 1.133,-1.876 -0.155,-1.876 -1,-1.04 -1,0.237 c 0,1.34 0.958,2.35 2.237,2.35 1.236,0 2.019,-0.866 2.019,-2.237 L 3.247,0 Z M 2.256,0.794 C 2.154,1.443 1.802,1.762 1.185,1.762 0.587,1.762 0.227,1.454 0.062,0.794 Z"
             style="fill:#231f20;fill-opacity:1;fill-rule:nonzero;stroke:none"
             id="path710" />
        </g>
        <g
           id="g712"
           transform="translate(31.8038,6.203)">
          <path
             d="m 0,0 c 0.361,0.371 0.681,0.505 1.154,0.505 0.525,0 0.773,-0.165 0.989,-0.681 0.453,0.484 0.815,0.671 1.35,0.671 0.815,0 1.248,-0.402 1.248,-1.144 0,-0.185 0,-0.227 -0.083,-0.846 L 4.38,-3.803 H 3.39 l 0.299,2.422 C 3.721,-1.165 3.731,-1 3.74,-0.876 3.761,-0.526 3.555,-0.331 3.184,-0.331 2.927,-0.331 2.67,-0.443 2.515,-0.609 2.371,-0.773 2.288,-1.019 2.235,-1.464 L 1.948,-3.803 H 0.959 l 0.308,2.483 c 0.022,0.187 0.042,0.393 0.042,0.465 0,0.34 -0.207,0.524 -0.566,0.524 -0.259,0 -0.527,-0.123 -0.681,-0.318 -0.134,-0.175 -0.227,-0.444 -0.278,-0.815 l -0.289,-2.339 h -0.979 l 0.516,4.194 h 1.019 z"
             style="fill:#231f20;fill-opacity:1;fill-rule:nonzero;stroke:none"
             id="path714" />
        </g>
        <g
           id="g716"
           transform="translate(40.6554,6.2132)">
          <path
             d="m 0,0 c 0.535,0.371 0.834,0.484 1.32,0.484 1.142,0 1.967,-0.875 1.967,-2.071 0,-1.308 -0.959,-2.329 -2.185,-2.329 -0.618,0 -1.04,0.187 -1.505,0.669 l -0.071,-0.565 h -0.98 l 0.928,7.511 h 0.978 z m -0.248,-1.844 c 0,-0.733 0.485,-1.248 1.175,-1.248 0.763,0 1.371,0.66 1.371,1.474 0,0.763 -0.496,1.278 -1.207,1.278 -0.771,0 -1.339,-0.639 -1.339,-1.504"
             style="fill:#231f20;fill-opacity:1;fill-rule:nonzero;stroke:none"
             id="path718" />
        </g>
        <g
           id="g720"
           transform="translate(47.4349,4.1418)">
          <path
             d="m 0,0 c 0.03,-0.649 0.474,-1.05 1.154,-1.05 0.453,0 0.813,0.174 1.051,0.515 L 2.937,-0.948 C 2.442,-1.618 1.948,-1.876 1.133,-1.876 -0.155,-1.876 -1,-1.04 -1,0.237 c 0,1.34 0.958,2.35 2.237,2.35 1.235,0 2.019,-0.866 2.019,-2.237 L 3.247,0 Z M 2.256,0.794 C 2.154,1.443 1.802,1.762 1.185,1.762 0.587,1.762 0.227,1.454 0.062,0.794 Z"
             style="fill:#231f20;fill-opacity:1;fill-rule:nonzero;stroke:none"
             id="path722" />
        </g>
        <g
           id="g724"
           transform="translate(54.6475,6.2343)">
          <path
             d="m 0,0 c 0.38,0.361 0.618,0.473 1.01,0.473 0.34,0 0.525,-0.072 0.804,-0.329 L 1.186,-0.66 c -0.187,0.165 -0.352,0.237 -0.537,0.237 -0.195,0 -0.403,-0.093 -0.526,-0.248 -0.174,-0.216 -0.267,-0.484 -0.34,-1.071 l -0.257,-2.093 h -0.98 l 0.516,4.196 H 0.04 Z"
             style="fill:#231f20;fill-opacity:1;fill-rule:nonzero;stroke:none"
             id="path726" />
        </g>
        <g
           id="g728"
           transform="translate(66.5589,4.5335)">
          <path
             d="m 0,0 c 0,-1.278 -1,-2.267 -2.298,-2.267 -1.35,0 -2.318,0.917 -2.318,2.195 0,1.298 1.01,2.267 2.36,2.267 C -0.927,2.195 0,1.299 0,0 m -3.627,-0.051 c 0,-0.825 0.535,-1.392 1.309,-1.392 0.773,0 1.329,0.628 1.329,1.494 0,0.794 -0.505,1.32 -1.267,1.32 -0.794,0 -1.371,-0.598 -1.371,-1.422"
             style="fill:#231f20;fill-opacity:1;fill-rule:nonzero;stroke:none"
             id="path730" />
        </g>
        <g
           id="g732"
           transform="translate(70.1024,2.4005)">
          <path
             d="m 0,0 h -0.979 l 0.402,3.277 h -0.639 l 0.114,0.917 h 0.639 l 0.226,1.876 c 0.072,0.556 0.197,0.885 0.433,1.123 0.216,0.206 0.547,0.329 0.876,0.329 0.268,0 0.484,-0.06 0.834,-0.226 L 1.804,6.431 C 1.598,6.596 1.473,6.656 1.289,6.656 0.938,6.656 0.794,6.45 0.711,5.792 L 0.516,4.194 H 1.412 L 1.299,3.277 H 0.403 Z"
             style="fill:#231f20;fill-opacity:1;fill-rule:nonzero;stroke:none"
             id="path734" />
        </g>
        <g
           id="g736"
           transform="translate(81.6843,2.4005)">
          <path
             d="M 0,0 H -1.082 L -2.71,2.823 H -3.082 L -3.421,0 H -4.44 l 0.843,6.874 h 1.351 C -1.454,6.874 -1.01,6.76 -0.66,6.461 -0.248,6.11 0,5.533 0,4.916 0,4.328 -0.216,3.793 -0.609,3.432 -0.885,3.164 -1.174,3.029 -1.721,2.895 Z m -2.967,3.72 h 0.473 c 0.609,0 0.917,0.092 1.155,0.351 0.195,0.216 0.32,0.535 0.32,0.855 0,0.412 -0.197,0.752 -0.526,0.896 C -1.7,5.885 -1.968,5.926 -2.267,5.926 H -2.7 Z"
             style="fill:#231f20;fill-opacity:1;fill-rule:nonzero;stroke:none"
             id="path738" />
        </g>
        <g
           id="g740"
           transform="translate(86.4336,9.2737)">
          <path
             d="M 0,0 C 0.762,0 1.155,-0.123 1.484,-0.452 1.804,-0.762 2,-1.246 2,-1.742 2,-2.453 1.69,-2.958 1,-3.328 1.381,-3.421 1.556,-3.504 1.762,-3.678 2.051,-3.936 2.216,-4.359 2.216,-4.843 2.216,-5.595 1.845,-6.286 1.257,-6.616 0.896,-6.811 0.546,-6.874 -0.299,-6.874 H -2.112 L -1.267,0 Z m -0.979,-5.925 h 0.68 c 0.567,0 0.845,0.051 1.052,0.186 0.278,0.185 0.442,0.546 0.442,0.968 0,0.681 -0.371,0.948 -1.297,0.948 h -0.619 z m 0.361,2.916 h 0.289 c 0.494,0 0.803,0.103 0.999,0.331 0.196,0.216 0.309,0.556 0.309,0.885 0,0.588 -0.309,0.845 -1,0.845 h -0.35 z"
             style="fill:#231f20;fill-opacity:1;fill-rule:nonzero;stroke:none"
             id="path742" />
        </g>
        <g
           id="g744"
           transform="translate(92.2969,2.4005)">
          <path
             d="m 0,0 h -1.02 l 0.844,6.874 h 1.02 z"
             style="fill:#231f20;fill-opacity:1;fill-rule:nonzero;stroke:none"
             id="path746" />
        </g>
        <g
           id="g748"
           transform="translate(105.6614,5.595)">
          <path
             d="m 0,0 c -0.083,-0.845 -0.238,-1.371 -0.567,-1.917 -0.566,-0.927 -1.443,-1.411 -2.555,-1.411 -1.906,0 -3.287,1.443 -3.287,3.43 0,2.144 1.483,3.71 3.514,3.71 1.153,0 2.059,-0.442 2.823,-1.38 L -0.743,1.751 c -0.566,0.743 -1.267,1.103 -2.174,1.103 -1.453,0 -2.472,-1.123 -2.472,-2.731 0,-1.462 0.958,-2.494 2.329,-2.494 0.978,0 1.7,0.567 1.895,1.495 h -1.7 L -2.751,0 Z"
             style="fill:#231f20;fill-opacity:1;fill-rule:nonzero;stroke:none"
             id="path750" />
        </g>
        <g
           id="g752"
           transform="translate(109.4836,6.2343)">
          <path
             d="m 0,0 c 0.38,0.361 0.618,0.473 1.01,0.473 0.34,0 0.525,-0.072 0.804,-0.329 L 1.184,-0.66 c -0.185,0.165 -0.35,0.237 -0.535,0.237 -0.197,0 -0.403,-0.093 -0.526,-0.248 -0.174,-0.216 -0.267,-0.484 -0.34,-1.071 l -0.257,-2.093 h -0.98 l 0.516,4.196 H 0.04 Z"
             style="fill:#231f20;fill-opacity:1;fill-rule:nonzero;stroke:none"
             id="path754" />
        </g>
        <g
           id="g756"
           transform="translate(117.7165,4.5335)">
          <path
             d="m 0,0 c 0,-1.278 -1,-2.267 -2.298,-2.267 -1.35,0 -2.318,0.917 -2.318,2.195 0,1.298 1.01,2.267 2.36,2.267 C -0.927,2.195 0,1.299 0,0 m -3.627,-0.051 c 0,-0.825 0.535,-1.392 1.309,-1.392 0.773,0 1.329,0.628 1.329,1.494 0,0.794 -0.505,1.32 -1.267,1.32 -0.794,0 -1.371,-0.598 -1.371,-1.422"
             style="fill:#231f20;fill-opacity:1;fill-rule:nonzero;stroke:none"
             id="path758" />
        </g>
        <g
           id="g760"
           transform="translate(124.0425,4.1527)">
          <path
             d="m 0,0 c -0.093,-0.764 -0.216,-1.072 -0.526,-1.36 -0.329,-0.321 -0.834,-0.495 -1.411,-0.495 -1.03,0 -1.7,0.577 -1.7,1.473 0,0.123 0.02,0.331 0.04,0.556 l 0.278,2.268 h 0.99 L -2.617,0.093 c -0.031,-0.176 -0.042,-0.371 -0.042,-0.454 0,-0.433 0.278,-0.67 0.783,-0.67 0.556,0 0.794,0.267 0.887,0.989 l 0.31,2.484 h 0.978 z"
             style="fill:#231f20;fill-opacity:1;fill-rule:nonzero;stroke:none"
             id="path762" />
        </g>
        <g
           id="g764"
           transform="translate(128.2978,6.1516)">
          <path
             d="m 0,0 c 0.465,0.403 0.813,0.546 1.34,0.546 1.124,0 1.948,-0.877 1.948,-2.061 0,-1.319 -0.97,-2.339 -2.205,-2.339 -0.618,0 -0.99,0.174 -1.474,0.7 l -0.371,-2.998 h -0.98 l 0.815,6.595 h 0.978 z m -0.227,-1.793 c 0,-0.722 0.495,-1.236 1.206,-1.236 0.742,0 1.32,0.648 1.32,1.482 0,0.743 -0.474,1.269 -1.134,1.269 -0.793,0 -1.392,-0.649 -1.392,-1.515"
             style="fill:#231f20;fill-opacity:1;fill-rule:nonzero;stroke:none"
             id="path766" />
        </g>
        <g
           id="g768"
           transform="translate(6e-4,29.1232)">
          <path
             d="M 0,0 V -2.374 H 4.028 V -13.41 H 6.85 v 11.036 h 4.012 V 0 Z"
             style="fill:#231f20;fill-opacity:1;fill-rule:nonzero;stroke:none"
             id="path770" />
        </g>
        <g
           id="g772"
           transform="translate(14.709,20.7808)">
          <path
             d="M 0,0 H 3.435 L 1.74,5.276 Z m 0.185,8.341 h 3.17 L 8.099,-5.067 H 5.06 l -0.884,2.756 h -4.938 l -0.91,-2.756 h -2.93 z"
             style="fill:#231f20;fill-opacity:1;fill-rule:nonzero;stroke:none"
             id="path774" />
        </g>
        <g
           id="g776"
           transform="translate(32.8808,29.1224)">
          <path
             d="m 0,0 v -2.374 h -4.012 v -11.034 h -2.82 v 11.034 h -4.03 V 0 Z"
             style="fill:#231f20;fill-opacity:1;fill-rule:nonzero;stroke:none"
             id="path778" />
        </g>
        <g
           id="g780"
           transform="translate(37.3022,26.7928)">
          <path
             d="m 0,0 v -3.601 h 3.016 c 0.599,0 1.048,0.072 1.348,0.217 0.53,0.255 0.796,0.758 0.796,1.511 0,0.812 -0.258,1.357 -0.771,1.638 C 4.101,-0.079 3.67,0 3.093,0 Z M 5.792,1.985 C 6.286,1.771 6.703,1.458 7.047,1.047 7.33,0.707 7.556,0.331 7.72,-0.083 7.886,-0.494 7.968,-0.963 7.968,-1.491 7.968,-2.128 7.809,-2.754 7.488,-3.37 7.165,-3.985 6.634,-4.42 5.896,-4.674 6.514,-4.923 6.951,-5.277 7.21,-5.735 7.468,-6.193 7.597,-6.892 7.597,-7.831 v -0.902 c 0,-0.611 0.024,-1.026 0.073,-1.245 0.075,-0.347 0.247,-0.602 0.519,-0.765 v -0.336 H 5.096 C 5.01,-10.781 4.949,-10.542 4.912,-10.361 4.84,-9.985 4.801,-9.6 4.795,-9.204 L 4.777,-7.96 c -0.012,0.855 -0.16,1.427 -0.444,1.712 -0.284,0.283 -0.817,0.426 -1.595,0.426 H 0 v -5.257 H -2.738 V 2.329 H 3.677 C 4.593,2.31 5.297,2.197 5.792,1.985"
             style="fill:#231f20;fill-opacity:1;fill-rule:nonzero;stroke:none"
             id="path782" />
        </g>
        <g
           id="g784"
           transform="translate(51.6775,20.7808)">
          <path
             d="M 0,0 H 3.435 L 1.74,5.276 Z M 0.185,8.341 H 3.356 L 8.099,-5.067 H 5.06 l -0.884,2.756 h -4.938 l -0.91,-2.756 h -2.93 z"
             style="fill:#231f20;fill-opacity:1;fill-rule:nonzero;stroke:none"
             id="path786" />
        </g>
        <g
           id="g788"
           transform="translate(69.3788,21.6187)">
          <path
             d="m 0,0 v -3.577 h 3.256 c 0.581,0 1.034,0.08 1.357,0.238 0.588,0.289 0.881,0.848 0.881,1.674 0,0.697 -0.283,1.175 -0.853,1.435 C 4.321,-0.083 3.876,-0.007 3.301,0 Z M 0,5.175 V 2.219 h 3.259 c 0.582,0 1.056,0.11 1.418,0.33 0.362,0.223 0.545,0.616 0.545,1.179 0,0.625 -0.241,1.039 -0.721,1.237 -0.413,0.139 -0.942,0.21 -1.585,0.21 z m 7.28,0.9 C 7.691,5.506 7.897,4.824 7.897,4.028 7.897,3.209 7.688,2.551 7.276,2.054 7.044,1.775 6.702,1.522 6.253,1.291 6.937,1.042 7.453,0.649 7.802,0.109 8.15,-0.432 8.323,-1.086 8.323,-1.858 8.323,-2.653 8.126,-3.363 7.726,-3.995 7.474,-4.413 7.156,-4.765 6.777,-5.049 6.349,-5.377 5.843,-5.601 5.262,-5.723 4.68,-5.846 4.049,-5.905 3.368,-5.905 H -2.675 V 7.503 H 3.804 C 5.439,7.478 6.6,7.004 7.28,6.075"
             style="fill:#231f20;fill-opacity:1;fill-rule:nonzero;stroke:none"
             id="path790" />
        </g>
        <g
           id="g792"
           transform="translate(83.3445,20.7808)">
          <path
             d="M 0,0 H 3.435 L 1.74,5.276 Z m 0.185,8.341 h 3.17 L 8.099,-5.067 H 5.06 l -0.884,2.756 h -4.938 l -0.91,-2.756 h -2.93 z"
             style="fill:#231f20;fill-opacity:1;fill-rule:nonzero;stroke:none"
             id="path794" />
        </g>
        <g
           id="g796"
           transform="translate(93.1042,29.1224)">
          <path
             d="M 0,0 H 2.937 L 8.26,-9.348 V 0 h 2.61 V -13.408 H 8.069 L 2.61,-3.895 v -9.513 H 0 Z"
             style="fill:#231f20;fill-opacity:1;fill-rule:nonzero;stroke:none"
             id="path798" />
        </g>
        <g
           id="g800"
           transform="translate(106.3167,29.1224)">
          <path
             d="M 0,0 H 2.756 V -5.525 L 7.936,0 h 3.621 L 6.055,-5.515 11.84,-13.408 H 8.238 l -4.132,5.852 -1.35,-1.368 v -4.484 H 0 Z"
             style="fill:#231f20;fill-opacity:1;fill-rule:nonzero;stroke:none"
             id="path802" />
        </g>
        <g
           id="g804"
           transform="translate(123.6712,29.1232)">
          <path
             d="m 0,0 -4.788,-13.41 h 2.932 l 0.908,2.757 H 3.991 L 4.876,-13.41 H 7.914 L 3.171,0 Z m 1.555,-3.067 1.694,-5.276 h -3.433 z"
             style="fill:#231f20;fill-opacity:1;fill-rule:nonzero;stroke:none"
             id="path806" />
        </g>
        <g
           id="g808"
           transform="translate(104.5506,68.3455)">
          <path
             d="m 0,0 -0.899,-4.19 h -7.079 l -4.126,-19.473 h -4.976 l 4.125,19.473 h -7.111 L -19.167,0 Z"
             style="fill:#231f20;fill-opacity:1;fill-rule:nonzero;stroke:none"
             id="path810" />
        </g>
        <g
           id="g812"
           transform="translate(110.4014,64.236)">
          <path
             d="m 0,0 -1.108,-5.218 h 5.811 c 1.039,0 1.924,0.197 2.656,0.587 0.735,0.39 1.208,1.083 1.422,2.079 0.224,1.101 -0.048,1.83 -0.819,2.183 C 7.266,-0.124 6.347,0 5.201,0 Z m -1.944,-9.134 -1.332,-6.309 h 5.812 c 1.038,0 1.873,0.14 2.503,0.418 1.167,0.513 1.907,1.498 2.218,2.953 0.256,1.231 -0.076,2.076 -0.996,2.537 -0.515,0.257 -1.285,0.39 -2.312,0.401 z m 15.22,10.723 c 0.513,-1.007 0.626,-2.211 0.337,-3.611 -0.31,-1.445 -0.925,-2.607 -1.845,-3.485 -0.504,-0.492 -1.195,-0.941 -2.072,-1.347 1.113,-0.44 1.875,-1.135 2.288,-2.088 0.412,-0.951 0.473,-2.108 0.185,-3.468 -0.302,-1.402 -0.923,-2.658 -1.863,-3.772 C 9.696,-16.921 9,-17.54 8.22,-18.042 7.34,-18.622 6.365,-19.018 5.288,-19.231 4.214,-19.445 3.071,-19.553 1.862,-19.553 H -8.861 L -3.837,4.11 H 7.657 c 2.889,-0.043 4.762,-0.884 5.619,-2.521"
             style="fill:#231f20;fill-opacity:1;fill-rule:nonzero;stroke:none"
             id="path814" />
        </g>
        <g
           id="g816"
           transform="translate(113.8832,118.4849)">
          <path
             d="M 0,0 V -0.539 -1.078 H 15.795 V -81.506 H -112.804 V -1.078 H -49.93 V 0 h -63.953 V -82.583 H 16.879 l 0,82.583 z"
             style="fill:#231f20;fill-opacity:1;fill-rule:nonzero;stroke:none"
             id="path818" />
        </g>
        <g
           id="g820"
           transform="translate(22.1392,44.6851)">
          <path
             d="M 0,0 37.355,65.01 H 19.57 L -17.787,0 Z"
             style="fill:#231f20;fill-opacity:1;fill-rule:nonzero;stroke:none"
             id="path822" />
        </g>
        <g
           id="g824"
           transform="translate(81.8837,140.4985)">
          <path
             d="m 0,0 -55.072,-95.813 h 17.827 L 17.784,0 Z"
             style="fill:#231f20;fill-opacity:1;fill-rule:nonzero;stroke:none"
             id="path826" />
        </g>
        <g
           id="g828"
           transform="translate(67.0949,44.6866)">
          <path
             d="M 0,0 46.341,80.64 H 28.56 L -17.789,0 Z"
             style="fill:#231f20;fill-opacity:1;fill-rule:nonzero;stroke:none"
             id="path830" />
        </g>
        <g
           id="g832"
           transform="translate(6e-4,12.3174)">
          <path
             d="M 0,0 V -9.913 L 9.798,-9.917 V 0 Z m 0.261,-9.64 v 9.361 H 9.52 L 9.513,-9.643 Z"
             style="fill:#231f20;fill-opacity:1;fill-rule:nonzero;stroke:none"
             id="path834" />
        </g>
        <g
           id="g836"
           transform="translate(4.8835,6.1669)">
          <path
             d="M 0,0 2.949,-2.975 4.103,-1.809 1.152,1.174 1.726,1.751 V 2.913 L 2.139,3.327 V 2.365 L 2.54,1.966 3.978,3.425 4.368,3.035 C 4.368,3.285 4.295,4.149 3.61,4.824 2.844,5.579 2.075,5.138 1.811,4.871 L 0.421,3.464 0.768,3.115 0,2.342 -0.765,3.115 -0.421,3.464 -1.811,4.871 C -2.076,5.138 -2.841,5.579 -3.609,4.824 -4.294,4.149 -4.35,3.285 -4.35,3.035 l 0.372,0.39 1.441,-1.459 0.4,0.404 V 3.327 L -1.726,2.913 V 1.755 L -1.15,1.174 -4.074,-1.779 -2.92,-2.942 Z"
             style="fill:#231f20;fill-opacity:1;fill-rule:nonzero;stroke:none"
             id="path838" />
        </g>
      </g>
    </g>
  </g>
</svg>
